# xmcd
#
# Track frame offsets:
#	150
#	12237
#	20640
#	30585
#	42595
#	60882
#	71035
#	82832
#	93150
#	104202
#	121112
#	131980
#	144617
#
# Disc length: 2123 seconds
#
# Revision: 3
# Processed by: cddbd v1.4PL0 Copyright (c) Steve Scherf et al.
# Submitted via: CDmax 2.0
#
DISCID=af08490d
DTITLE=Light Crust Doughboys - Doughboy Rock
DYEAR=2000
DGENRE=Country
TTITLE0=It's No Sin To Rock
TTITLE1=Take Me Back To Tulsa
TTITLE2=She Bops a Lot
TTITLE3=Teenage Boogie
TTITLE4=Milk Cow Blues
TTITLE5=The B. S. Boogie
TTITLE6=Jailhouse Rock
TTITLE7=Miss Molly
TTITLE8=That's All Right Mama
TTITLE9=Just Because
TTITLE10=Hello Mary Lou
TTITLE11=Pussy Pussy Pussy
TTITLE12=Hey Good Lookin'
EXTD=LABEL =Art Greenshaw, Inc.\nID =AG2005\nUPC =663525-700321\nCOPYRIGHT
EXTD==2000
EXTT0=
EXTT1=
EXTT2=
EXTT3=
EXTT4=
EXTT5=
EXTT6=
EXTT7=
EXTT8=
EXTT9=
EXTT10=
EXTT11=
EXTT12=
PLAYORDER=
